<svg id="svg" version="1.1" width="400" height="59.57259308217669" viewBox="0 0 400 59.57259308217669" xmlns="http://www.w3.org/2000/svg" xmlns:xlink="http://www.w3.org/1999/xlink" ><g id="svgg"><path id="path0" d="M123.226 24.917 C 123.225 25.742,123.254 26.100,123.288 25.713 C 123.323 25.327,123.324 24.652,123.289 24.213 C 123.255 23.775,123.226 24.092,123.226 24.917 M190.205 26.667 C 190.205 26.988,190.240 27.119,190.282 26.958 C 190.323 26.798,190.323 26.535,190.282 26.375 C 190.240 26.215,190.205 26.346,190.205 26.667 M350.819 26.886 C 350.894 26.960,351.284 26.996,351.686 26.966 L 352.417 26.911 351.550 26.830 C 351.073 26.786,350.744 26.811,350.819 26.886 M123.236 33.417 C 123.236 35.158,123.261 35.848,123.291 34.950 C 123.321 34.051,123.321 32.626,123.291 31.783 C 123.261 30.940,123.236 31.675,123.236 33.417 M103.217 35.500 C 103.217 36.004,103.248 36.210,103.286 35.958 C 103.324 35.706,103.324 35.294,103.286 35.042 C 103.248 34.790,103.217 34.996,103.217 35.500 M367.042 40.417 C 367.044 40.783,367.078 40.914,367.118 40.706 C 367.158 40.499,367.156 40.199,367.115 40.040 C 367.073 39.880,367.040 40.050,367.042 40.417 M281.372 41.167 C 281.372 41.487,281.406 41.619,281.448 41.458 C 281.490 41.298,281.490 41.035,281.448 40.875 C 281.406 40.715,281.372 40.846,281.372 41.167 " stroke="none" fill="#000000" fill-rule="evenodd"></path><path id="path1" d="M297.906 24.250 C 297.905 26.542,297.929 27.502,297.958 26.385 C 297.987 25.267,297.987 23.392,297.958 22.218 C 297.929 21.044,297.906 21.958,297.906 24.250 M315.164 25.383 L 315.244 26.250 315.299 25.519 C 315.330 25.117,315.294 24.727,315.219 24.652 C 315.144 24.577,315.119 24.906,315.164 25.383 M199.073 31.417 C 199.073 33.892,199.096 34.927,199.124 33.718 C 199.153 32.509,199.153 30.484,199.125 29.218 C 199.096 27.952,199.073 28.942,199.073 31.417 M296.569 40.333 C 296.569 41.938,296.594 42.594,296.624 41.792 C 296.655 40.990,296.655 39.677,296.624 38.875 C 296.594 38.073,296.569 38.729,296.569 40.333 " stroke="none" fill="#333333" fill-rule="evenodd"></path><path id="path2" d="M88.968 20.291 C 90.096 20.320,91.896 20.320,92.968 20.291 C 94.040 20.262,93.117 20.238,90.917 20.239 C 88.717 20.239,87.840 20.262,88.968 20.291 M182.292 20.291 C 183.415 20.320,185.252 20.320,186.375 20.291 C 187.498 20.262,186.579 20.239,184.333 20.239 C 182.088 20.239,181.169 20.262,182.292 20.291 M140.398 24.250 C 140.398 25.442,140.425 25.907,140.457 25.285 C 140.489 24.662,140.489 23.687,140.457 23.118 C 140.424 22.549,140.398 23.058,140.398 24.250 M286.375 25.583 C 286.377 25.950,286.411 26.080,286.451 25.873 C 286.491 25.666,286.490 25.366,286.448 25.206 C 286.406 25.047,286.374 25.217,286.375 25.583 M132.061 28.583 C 132.061 29.500,132.089 29.854,132.123 29.369 C 132.157 28.885,132.156 28.135,132.122 27.703 C 132.088 27.270,132.060 27.667,132.061 28.583 M140.366 33.448 C 140.348 35.208,140.390 36.682,140.458 36.725 C 140.527 36.767,140.564 35.816,140.540 34.609 C 140.461 30.623,140.399 30.207,140.366 33.448 M199.050 36.667 C 199.050 37.171,199.081 37.377,199.119 37.125 C 199.158 36.873,199.158 36.460,199.119 36.208 C 199.081 35.956,199.050 36.162,199.050 36.667 " stroke="none" fill="#555555" fill-rule="evenodd"></path><path id="path3" d="M233.245 30.667 C 233.245 36.946,233.266 39.515,233.292 36.375 C 233.317 33.235,233.317 28.098,233.292 24.958 C 233.266 21.819,233.245 24.387,233.245 30.667 M300.072 24.167 C 300.072 26.504,300.096 27.460,300.125 26.292 C 300.153 25.123,300.153 23.210,300.125 22.042 C 300.096 20.873,300.072 21.829,300.072 24.167 M346.196 22.042 C 346.180 23.210,346.223 24.167,346.292 24.167 C 346.360 24.167,346.397 23.511,346.372 22.709 C 346.293 20.120,346.226 19.865,346.196 22.042 M289.125 22.451 C 289.331 22.491,289.669 22.491,289.875 22.451 C 290.081 22.411,289.912 22.379,289.500 22.379 C 289.087 22.379,288.919 22.411,289.125 22.451 M294.211 22.453 C 294.464 22.491,294.839 22.490,295.044 22.451 C 295.249 22.411,295.042 22.380,294.583 22.381 C 294.125 22.382,293.957 22.415,294.211 22.453 M313.958 22.451 C 314.165 22.491,314.502 22.491,314.708 22.451 C 314.915 22.411,314.746 22.379,314.333 22.379 C 313.921 22.379,313.752 22.411,313.958 22.451 M320.875 22.448 C 321.035 22.490,321.298 22.490,321.458 22.448 C 321.619 22.406,321.487 22.372,321.167 22.372 C 320.846 22.372,320.715 22.406,320.875 22.448 M333.294 22.451 C 333.501 22.491,333.801 22.490,333.960 22.448 C 334.120 22.406,333.950 22.374,333.583 22.375 C 333.217 22.377,333.086 22.411,333.294 22.451 M337.877 22.453 C 338.131 22.491,338.506 22.490,338.711 22.451 C 338.916 22.411,338.708 22.380,338.250 22.381 C 337.792 22.382,337.624 22.415,337.877 22.453 M340.627 22.451 C 340.834 22.491,341.134 22.490,341.294 22.448 C 341.453 22.406,341.283 22.374,340.917 22.375 C 340.550 22.377,340.420 22.411,340.627 22.451 M348.128 22.454 C 348.428 22.491,348.878 22.490,349.128 22.452 C 349.378 22.414,349.133 22.384,348.583 22.385 C 348.033 22.386,347.828 22.417,348.128 22.454 M352.211 22.453 C 352.464 22.491,352.839 22.490,353.044 22.451 C 353.249 22.411,353.042 22.380,352.583 22.381 C 352.125 22.382,351.957 22.415,352.211 22.453 M135.225 25.000 C 135.225 25.779,135.254 26.098,135.289 25.708 C 135.324 25.319,135.324 24.681,135.289 24.292 C 135.254 23.902,135.225 24.221,135.225 25.000 M336.064 26.333 C 336.064 27.479,336.091 27.948,336.123 27.375 C 336.156 26.802,336.156 25.865,336.123 25.292 C 336.091 24.719,336.064 25.188,336.064 26.333 M288.542 25.417 C 288.544 25.783,288.578 25.914,288.618 25.706 C 288.658 25.499,288.656 25.199,288.615 25.040 C 288.573 24.880,288.540 25.050,288.542 25.417 M317.383 25.667 C 317.383 26.171,317.415 26.377,317.453 26.125 C 317.491 25.873,317.491 25.460,317.453 25.208 C 317.415 24.956,317.383 25.162,317.383 25.667 M200.368 26.457 C 200.982 26.489,202.032 26.489,202.701 26.457 C 203.370 26.426,202.867 26.399,201.583 26.399 C 200.300 26.399,199.753 26.425,200.368 26.457 M209.145 26.625 C 208.941 26.886,208.946 26.894,209.195 26.699 C 209.400 26.538,210.076 26.495,211.804 26.533 C 213.086 26.561,214.101 26.527,214.058 26.458 C 213.876 26.166,209.386 26.318,209.145 26.625 M254.292 26.451 C 254.498 26.491,254.835 26.491,255.042 26.451 C 255.248 26.411,255.079 26.379,254.667 26.379 C 254.254 26.379,254.085 26.411,254.292 26.451 M266.294 26.451 C 266.501 26.491,266.801 26.490,266.960 26.448 C 267.120 26.406,266.950 26.374,266.583 26.375 C 266.217 26.377,266.086 26.411,266.294 26.451 M346.217 27.500 C 346.217 28.004,346.248 28.210,346.286 27.958 C 346.324 27.706,346.324 27.294,346.286 27.042 C 346.248 26.790,346.217 26.996,346.217 27.500 M349.875 27.583 C 349.877 27.950,349.911 28.080,349.951 27.873 C 349.991 27.666,349.990 27.366,349.948 27.206 C 349.906 27.047,349.874 27.217,349.875 27.583 M128.539 30.833 C 128.539 31.154,128.573 31.285,128.615 31.125 C 128.657 30.965,128.657 30.702,128.615 30.542 C 128.573 30.381,128.539 30.512,128.539 30.833 M135.231 32.417 C 135.232 33.608,135.258 34.074,135.290 33.451 C 135.323 32.829,135.322 31.854,135.290 31.285 C 135.257 30.716,135.231 31.225,135.231 32.417 M92.375 33.119 C 92.627 33.158,93.040 33.158,93.292 33.119 C 93.544 33.081,93.337 33.050,92.833 33.050 C 92.329 33.050,92.123 33.081,92.375 33.119 M185.875 33.119 C 186.127 33.158,186.540 33.158,186.792 33.119 C 187.044 33.081,186.838 33.050,186.333 33.050 C 185.829 33.050,185.623 33.081,185.875 33.119 M354.705 36.000 C 354.705 36.321,354.740 36.452,354.782 36.292 C 354.823 36.131,354.823 35.869,354.782 35.708 C 354.740 35.548,354.705 35.679,354.705 36.000 M307.212 36.667 C 307.212 37.079,307.245 37.248,307.284 37.042 C 307.324 36.835,307.324 36.498,307.284 36.292 C 307.245 36.085,307.212 36.254,307.212 36.667 M350.236 40.167 C 350.236 41.862,350.261 42.556,350.291 41.708 C 350.321 40.860,350.321 39.473,350.291 38.625 C 350.261 37.777,350.236 38.471,350.236 40.167 M132.058 40.333 C 132.058 41.112,132.087 41.431,132.122 41.042 C 132.157 40.652,132.157 40.015,132.122 39.625 C 132.087 39.235,132.058 39.554,132.058 40.333 M305.060 40.500 C 305.060 41.371,305.088 41.727,305.123 41.292 C 305.157 40.856,305.157 40.144,305.123 39.708 C 305.088 39.273,305.060 39.629,305.060 40.500 M307.223 40.167 C 307.223 40.854,307.252 41.135,307.288 40.792 C 307.324 40.448,307.324 39.885,307.288 39.542 C 307.252 39.198,307.223 39.479,307.223 40.167 M383.499 41.383 L 383.582 43.417 383.630 41.514 C 383.656 40.468,383.619 39.552,383.547 39.480 C 383.475 39.408,383.454 40.264,383.499 41.383 M385.730 41.250 C 385.731 42.350,385.758 42.778,385.790 42.202 C 385.823 41.625,385.823 40.725,385.790 40.202 C 385.757 39.678,385.730 40.150,385.730 41.250 M325.375 41.917 C 325.377 42.283,325.411 42.414,325.451 42.206 C 325.491 41.999,325.490 41.699,325.448 41.540 C 325.406 41.380,325.374 41.550,325.375 41.917 " stroke="none" fill="#6d6d6d" fill-rule="evenodd"></path><path id="path4" d="M146.041 30.708 L 146.083 42.083 148.667 42.083 L 151.250 42.083 151.293 30.708 L 151.336 19.333 148.667 19.333 L 145.998 19.333 146.041 30.708 M227.995 23.542 C 227.990 26.882,227.948 27.696,227.786 27.490 C 226.609 25.979,222.773 25.734,220.485 27.023 C 219.558 27.546,217.833 29.633,217.833 30.233 C 217.833 30.364,217.757 30.498,217.663 30.529 C 217.569 30.560,217.445 30.885,217.387 31.251 C 217.329 31.617,217.226 31.954,217.157 32.000 C 216.443 32.479,217.279 39.500,218.051 39.500 C 218.125 39.500,218.149 39.560,218.104 39.634 C 218.027 39.758,218.385 40.170,219.656 41.417 C 219.937 41.692,220.166 41.849,220.166 41.766 C 220.167 41.683,220.299 41.735,220.460 41.881 C 221.213 42.562,224.257 42.737,225.708 42.183 C 225.960 42.087,226.169 42.063,226.172 42.129 C 226.175 42.196,226.254 42.117,226.349 41.955 C 226.443 41.792,226.579 41.696,226.651 41.740 C 226.722 41.784,227.036 41.556,227.349 41.232 L 227.917 40.644 228.000 41.364 L 228.083 42.083 230.625 42.129 L 233.167 42.175 233.167 30.754 L 233.167 19.333 230.583 19.333 L 228.000 19.333 227.995 23.542 M246.905 19.553 C 246.859 19.673,246.843 21.539,246.869 23.698 C 246.906 26.777,246.872 27.607,246.709 27.545 C 246.595 27.501,246.543 27.398,246.594 27.316 C 246.645 27.234,246.594 27.167,246.481 27.167 C 246.369 27.167,246.158 27.070,246.013 26.951 C 245.371 26.424,244.023 26.131,242.624 26.215 C 241.244 26.298,241.100 26.321,240.333 26.576 C 239.527 26.844,237.337 28.706,237.335 29.125 C 237.334 29.240,237.269 29.333,237.189 29.333 C 237.110 29.333,236.912 29.690,236.749 30.125 C 236.586 30.560,236.388 31.000,236.309 31.102 C 235.968 31.538,235.573 35.725,235.839 36.083 C 235.944 36.225,236.066 36.896,236.189 38.000 C 236.205 38.137,236.273 38.287,236.342 38.333 C 236.411 38.379,236.493 38.567,236.525 38.750 C 236.557 38.933,236.621 39.121,236.667 39.167 C 236.713 39.212,237.002 39.625,237.309 40.083 C 238.180 41.380,239.552 42.233,241.083 42.430 C 241.267 42.453,241.417 42.485,241.417 42.501 C 241.417 43.268,245.547 42.021,246.520 40.961 C 246.872 40.577,246.989 40.589,246.882 40.997 C 246.835 41.179,246.844 41.519,246.902 41.752 L 247.009 42.176 249.463 42.129 L 251.917 42.083 251.959 30.708 L 252.002 19.333 249.496 19.333 C 247.578 19.333,246.970 19.385,246.905 19.553 M298.000 24.167 L 298.000 28.500 299.042 28.500 L 300.083 28.500 300.036 24.167 L 299.989 19.833 298.995 19.833 L 298.000 19.833 298.000 24.167 M304.944 19.944 C 304.883 20.006,304.833 20.610,304.833 21.288 L 304.833 22.521 303.874 22.473 C 302.329 22.397,301.167 23.185,301.167 24.311 C 301.167 24.507,301.092 24.667,301.000 24.667 C 300.908 24.667,300.833 25.075,300.833 25.573 C 300.833 26.072,300.908 26.527,301.000 26.583 C 301.092 26.640,301.169 26.851,301.172 27.052 C 301.175 27.252,301.421 27.659,301.718 27.954 L 302.259 28.492 304.754 28.454 L 307.250 28.417 307.297 24.500 C 307.356 19.542,307.431 19.833,306.108 19.833 C 305.529 19.833,305.006 19.883,304.944 19.944 M319.676 19.954 C 319.067 20.194,318.613 20.884,318.536 21.685 C 318.466 22.410,318.414 22.500,318.062 22.500 C 317.705 22.500,317.667 22.572,317.667 23.250 C 317.667 23.939,317.701 24.000,318.083 24.000 L 318.500 24.000 318.500 26.250 L 318.500 28.500 319.583 28.500 L 320.667 28.500 320.667 26.260 L 320.667 24.020 321.292 23.968 C 321.901 23.918,321.917 23.900,321.917 23.250 C 321.917 22.600,321.901 22.582,321.292 22.532 C 320.336 22.452,320.743 21.333,321.728 21.333 C 322.137 21.333,322.167 21.282,322.167 20.583 L 322.167 19.833 321.042 19.846 C 320.423 19.854,319.808 19.902,319.676 19.954 M344.167 24.167 L 344.167 28.500 345.167 28.500 L 346.167 28.500 346.167 27.583 C 346.167 27.079,346.242 26.667,346.333 26.667 C 346.425 26.667,346.500 26.773,346.500 26.903 C 346.500 27.033,346.559 27.164,346.632 27.194 C 346.705 27.225,346.939 27.537,347.154 27.888 L 347.543 28.526 350.592 28.471 C 354.032 28.410,354.345 28.298,354.580 27.041 C 354.696 26.424,354.279 25.167,353.959 25.167 C 353.872 25.167,353.579 25.008,353.308 24.815 C 353.036 24.622,352.769 24.509,352.714 24.564 C 352.595 24.683,352.167 24.356,352.167 24.146 C 352.167 24.066,352.467 24.000,352.833 24.000 C 353.200 24.000,353.500 24.075,353.500 24.167 C 353.500 24.581,354.145 24.311,354.245 23.855 C 354.530 22.560,354.190 22.352,352.086 22.528 C 349.375 22.756,349.004 25.554,351.584 26.316 C 352.628 26.624,352.582 27.000,351.500 27.000 C 351.042 27.000,350.667 26.925,350.667 26.833 C 350.667 26.173,350.012 26.747,349.955 27.458 C 349.903 28.093,349.865 28.176,349.759 27.875 C 349.687 27.669,349.560 27.500,349.476 27.500 C 349.393 27.500,349.252 27.331,349.163 27.125 C 348.980 26.703,348.633 26.126,348.486 26.000 C 347.979 25.567,348.322 24.347,349.042 24.028 C 349.110 23.997,349.167 23.878,349.167 23.762 C 349.167 23.646,349.317 23.416,349.500 23.250 C 350.140 22.671,349.932 22.500,348.585 22.500 L 347.338 22.500 346.919 23.163 C 346.688 23.528,346.500 23.903,346.500 23.997 C 346.500 24.090,346.425 24.167,346.333 24.167 C 346.231 24.167,346.167 23.333,346.167 22.000 L 346.167 19.833 345.167 19.833 L 344.167 19.833 344.167 24.167 M86.833 31.235 L 86.833 42.175 92.148 42.162 C 95.070 42.155,97.511 42.100,97.571 42.041 C 97.630 41.981,97.883 41.905,98.131 41.873 C 98.380 41.840,98.801 41.705,99.067 41.573 C 99.333 41.441,99.652 41.333,99.776 41.333 C 99.899 41.333,100.000 41.263,100.000 41.178 C 100.000 41.092,100.156 40.973,100.346 40.913 C 100.713 40.796,102.167 39.383,102.167 39.142 C 102.167 39.064,102.226 39.000,102.299 39.000 C 102.371 39.000,102.549 38.739,102.693 38.420 C 102.841 38.093,102.875 37.889,102.770 37.952 C 102.667 38.014,102.693 37.929,102.826 37.765 C 104.026 36.288,102.597 31.966,100.642 31.156 C 100.380 31.048,100.167 30.898,100.167 30.823 C 100.167 30.748,99.828 30.636,99.414 30.574 L 98.661 30.461 99.372 30.115 C 99.763 29.924,100.138 29.689,100.206 29.593 C 100.273 29.496,100.329 29.482,100.331 29.563 C 100.342 30.186,102.167 27.442,102.167 26.802 C 102.167 26.636,102.242 26.500,102.333 26.500 C 102.716 26.500,102.482 24.942,101.891 23.558 C 101.768 23.269,101.667 22.946,101.667 22.840 C 101.667 22.734,101.592 22.693,101.500 22.750 C 101.408 22.807,101.333 22.777,101.333 22.683 C 101.333 22.450,100.468 21.667,100.210 21.667 C 100.095 21.667,100.000 21.604,100.000 21.527 C 100.000 21.450,99.569 21.252,99.042 21.087 C 98.515 20.921,97.971 20.748,97.833 20.701 C 97.696 20.654,97.471 20.583,97.333 20.542 C 97.196 20.502,94.777 20.430,91.958 20.382 L 86.833 20.295 86.833 31.235 M180.292 20.426 C 180.223 20.497,180.167 25.418,180.167 31.361 L 180.167 42.167 185.583 42.167 C 188.563 42.167,191.000 42.108,191.000 42.035 C 191.000 41.963,191.244 41.886,191.542 41.863 C 191.840 41.841,192.108 41.750,192.139 41.661 C 192.169 41.573,192.321 41.500,192.475 41.500 C 193.036 41.500,194.336 40.657,195.235 39.711 C 195.561 39.366,195.702 39.121,196.352 37.767 C 197.579 35.206,195.605 31.230,192.778 30.567 C 192.312 30.458,192.319 30.449,193.278 29.881 C 194.262 29.298,195.333 28.114,195.333 27.609 C 195.333 27.457,195.396 27.333,195.472 27.333 C 195.897 27.333,195.914 24.145,195.491 23.833 C 195.429 23.787,195.321 23.568,195.252 23.346 C 195.040 22.669,193.344 21.263,192.555 21.109 C 192.387 21.077,192.137 21.008,192.000 20.956 C 190.793 20.504,190.246 20.455,185.500 20.378 C 182.704 20.333,180.360 20.355,180.292 20.426 M275.220 20.875 C 275.302 21.370,275.460 22.061,275.746 23.167 C 275.805 23.396,275.896 23.865,275.949 24.208 C 276.001 24.552,276.102 24.833,276.172 24.833 C 276.243 24.833,276.353 25.283,276.417 25.834 C 276.481 26.384,276.600 26.876,276.683 26.927 C 276.766 26.978,276.833 27.240,276.833 27.510 C 276.833 27.779,276.908 28.000,277.000 28.000 C 277.092 28.000,277.167 28.116,277.167 28.257 C 277.167 28.701,279.738 28.530,279.787 28.083 C 279.850 27.508,280.020 26.763,280.167 26.417 C 280.337 26.015,280.509 25.236,280.552 24.667 C 280.609 23.905,281.069 24.180,281.250 25.083 C 281.342 25.542,281.465 25.992,281.525 26.083 C 281.585 26.175,281.687 26.679,281.752 27.203 C 281.903 28.417,282.050 28.527,283.443 28.466 L 284.583 28.417 284.750 27.583 C 284.842 27.125,284.966 26.675,285.025 26.583 C 285.085 26.492,285.188 26.042,285.255 25.583 C 285.321 25.125,285.433 24.675,285.502 24.583 C 285.572 24.492,285.682 24.023,285.747 23.542 C 285.812 23.060,285.933 22.667,286.016 22.667 C 286.099 22.667,286.167 22.442,286.167 22.167 C 286.167 21.892,286.227 21.667,286.301 21.667 C 286.374 21.667,286.453 21.367,286.474 21.000 L 286.514 20.333 285.465 20.335 C 284.320 20.336,284.000 20.628,284.000 21.672 C 284.000 21.914,283.951 22.160,283.892 22.219 C 283.832 22.279,283.761 22.573,283.732 22.872 C 283.589 24.402,283.285 25.488,283.197 24.784 C 283.114 24.118,282.940 23.394,282.828 23.250 C 282.757 23.158,282.645 22.652,282.580 22.125 C 282.515 21.598,282.395 21.167,282.314 21.167 C 282.233 21.167,282.167 20.979,282.167 20.750 C 282.167 20.345,282.133 20.333,281.000 20.333 C 280.074 20.333,279.833 20.385,279.833 20.583 C 279.833 20.721,279.758 20.833,279.667 20.833 C 279.575 20.833,279.500 21.049,279.500 21.313 C 279.500 21.577,279.387 22.062,279.250 22.391 C 279.112 22.720,279.000 23.179,279.000 23.411 C 279.000 23.643,278.925 23.833,278.833 23.833 C 278.742 23.833,278.667 24.068,278.667 24.354 C 278.667 24.797,278.630 24.844,278.417 24.667 C 278.279 24.553,278.167 24.206,278.167 23.896 C 278.167 23.587,278.103 23.333,278.024 23.333 C 277.946 23.333,277.837 22.865,277.781 22.292 C 277.614 20.544,277.444 20.336,276.190 20.335 L 275.130 20.333 275.220 20.875 M324.866 21.208 L 324.917 22.083 325.958 22.133 L 327.000 22.183 327.000 25.349 L 327.000 28.515 328.208 28.466 L 329.417 28.417 329.462 25.292 L 329.507 22.167 330.504 22.167 L 331.500 22.167 331.500 21.250 L 331.500 20.333 328.158 20.333 L 324.816 20.333 324.866 21.208 M127.762 21.981 C 127.681 22.111,127.250 22.231,126.295 22.390 C 126.137 22.416,125.955 22.489,125.892 22.552 C 125.829 22.615,125.603 22.667,125.389 22.667 C 125.175 22.667,125.000 22.742,125.000 22.833 C 125.000 22.925,124.794 23.001,124.542 23.002 C 123.364 23.008,123.333 23.052,123.333 24.769 L 123.333 26.333 122.417 26.354 C 121.912 26.366,121.422 26.384,121.327 26.396 C 120.958 26.440,120.838 26.981,120.836 28.625 L 120.833 30.333 122.064 30.333 L 123.294 30.333 123.367 34.708 C 123.448 39.576,123.545 40.034,124.754 41.243 C 126.008 42.496,128.465 42.947,130.732 42.338 C 132.121 41.965,131.975 42.223,132.010 40.079 L 132.039 38.250 131.561 38.278 C 131.298 38.294,130.736 38.359,130.311 38.423 C 128.817 38.648,128.675 38.233,128.620 33.458 L 128.583 30.333 130.292 30.333 L 132.000 30.333 132.000 28.434 C 132.000 26.216,132.108 26.333,130.070 26.333 L 128.667 26.333 128.667 24.283 C 128.667 22.251,128.563 21.833,128.060 21.833 C 127.946 21.833,127.812 21.900,127.762 21.981 M139.667 21.988 C 139.667 22.086,139.457 22.167,139.200 22.167 C 138.943 22.167,138.656 22.244,138.562 22.338 C 138.468 22.432,138.003 22.555,137.529 22.611 C 137.055 22.667,136.667 22.768,136.667 22.835 C 136.667 22.902,136.367 23.005,136.000 23.064 C 135.633 23.123,135.328 23.263,135.322 23.377 C 135.316 23.490,135.320 24.199,135.332 24.951 L 135.354 26.318 134.135 26.367 L 132.917 26.417 132.870 28.375 L 132.823 30.333 134.079 30.333 L 135.336 30.333 135.294 34.375 C 135.240 39.612,135.642 40.923,137.613 41.946 C 138.691 42.505,141.541 42.903,141.900 42.544 C 141.968 42.477,142.224 42.409,142.470 42.394 C 142.716 42.379,143.123 42.287,143.375 42.188 L 143.833 42.008 143.833 40.068 L 143.833 38.128 143.375 38.235 C 140.677 38.867,140.331 38.324,140.333 33.458 L 140.333 30.333 142.089 30.333 L 143.844 30.333 143.797 28.375 L 143.750 26.417 142.046 26.369 L 140.343 26.322 140.296 24.121 C 140.255 22.180,140.216 21.914,139.958 21.865 C 139.798 21.834,139.667 21.889,139.667 21.988 M288.152 22.575 C 286.325 23.101,285.756 26.374,287.229 27.883 L 287.750 28.417 289.569 28.417 C 290.876 28.417,291.408 28.358,291.458 28.208 C 291.496 28.094,291.634 28.000,291.764 28.000 C 291.894 28.000,292.000 27.887,292.000 27.750 C 292.000 27.613,292.059 27.500,292.131 27.500 C 292.824 27.500,293.072 24.969,292.489 23.850 C 291.870 22.662,289.882 22.078,288.152 22.575 M294.542 22.467 L 293.667 22.517 293.667 25.517 L 293.667 28.516 294.708 28.466 L 295.750 28.417 295.833 26.632 C 295.905 25.099,295.964 24.811,296.250 24.595 C 296.638 24.303,297.102 24.260,297.252 24.503 C 297.481 24.874,297.667 24.430,297.667 23.508 L 297.667 22.536 297.086 22.469 C 296.766 22.431,296.392 22.464,296.255 22.541 C 296.117 22.618,295.872 22.621,295.711 22.549 C 295.549 22.476,295.023 22.439,294.542 22.467 M312.905 22.583 C 312.238 22.811,311.228 23.901,311.103 24.527 C 310.960 25.242,310.974 26.627,311.125 26.694 C 311.194 26.725,311.384 27.012,311.547 27.333 C 312.435 29.076,316.210 28.926,317.195 27.109 C 317.426 26.683,317.431 24.327,317.201 23.898 C 316.932 23.394,315.873 22.501,315.536 22.493 C 315.379 22.489,314.832 22.470,314.322 22.451 C 313.811 22.432,313.174 22.492,312.905 22.583 M332.000 22.563 C 331.277 22.770,330.891 23.947,331.386 24.441 C 331.509 24.564,332.333 24.310,332.333 24.149 C 332.333 24.067,332.708 24.000,333.167 24.000 C 333.779 24.000,334.000 24.063,334.000 24.239 C 334.000 24.507,333.427 24.744,333.167 24.584 C 332.910 24.425,331.814 24.854,331.240 25.337 C 330.709 25.785,330.370 27.667,330.821 27.667 C 330.920 27.667,331.000 27.777,331.000 27.911 C 331.000 28.361,331.598 28.482,333.847 28.483 L 336.083 28.485 336.057 26.052 L 336.030 23.619 335.473 23.062 C 334.854 22.443,333.234 22.210,332.000 22.563 M340.751 22.469 C 340.292 22.498,339.788 22.640,339.626 22.787 C 339.358 23.029,339.333 23.028,339.333 22.776 C 339.333 22.547,339.147 22.500,338.250 22.500 L 337.167 22.500 337.167 25.500 L 337.167 28.500 338.250 28.500 L 339.333 28.500 339.333 26.659 C 339.333 24.879,339.348 24.804,339.776 24.407 C 340.587 23.655,340.833 24.148,340.833 26.526 L 340.833 28.500 341.917 28.500 L 343.000 28.500 343.000 26.000 C 343.000 24.352,342.940 23.500,342.823 23.500 C 342.726 23.500,342.687 23.436,342.735 23.358 C 343.016 22.902,341.889 22.397,340.751 22.469 M290.000 24.167 C 290.000 24.258,290.109 24.333,290.242 24.333 C 290.819 24.333,290.760 26.074,290.162 26.671 C 289.837 26.996,289.333 27.119,289.333 26.873 C 289.333 26.803,289.165 26.672,288.960 26.581 C 288.554 26.402,288.279 24.833,288.654 24.833 C 288.753 24.833,288.833 24.721,288.833 24.583 C 288.833 24.446,288.946 24.333,289.083 24.333 C 289.221 24.333,289.333 24.258,289.333 24.167 C 289.333 24.075,289.483 24.000,289.667 24.000 C 289.850 24.000,290.000 24.075,290.000 24.167 M304.389 24.208 C 305.000 24.850,305.418 26.000,305.040 26.000 C 304.970 26.000,304.838 26.163,304.748 26.361 C 304.451 27.013,304.065 27.119,303.596 26.679 C 303.365 26.462,303.213 26.226,303.258 26.154 C 303.302 26.082,303.263 25.976,303.169 25.918 C 302.935 25.773,302.956 25.000,303.194 25.000 C 303.301 25.000,303.338 24.949,303.276 24.887 C 303.150 24.762,303.807 24.000,304.041 24.000 C 304.123 24.000,304.280 24.094,304.389 24.208 M314.849 24.345 C 315.465 24.783,315.533 25.868,314.988 26.561 C 314.655 26.985,314.167 27.157,314.167 26.851 C 314.167 26.770,313.985 26.657,313.763 26.602 C 313.030 26.417,313.011 24.907,313.736 24.302 C 314.183 23.928,314.268 23.931,314.849 24.345 M95.850 24.845 C 96.606 25.234,97.296 27.333,96.667 27.333 C 96.575 27.333,96.500 27.434,96.500 27.558 C 96.500 28.347,95.408 28.867,93.547 28.964 L 92.000 29.045 92.000 26.781 L 92.000 24.517 92.875 24.467 C 94.015 24.401,95.306 24.565,95.850 24.845 M189.284 24.862 C 189.868 25.214,190.333 25.992,190.333 26.616 C 190.333 27.078,189.731 28.333,189.509 28.333 C 189.425 28.333,189.237 28.453,189.091 28.599 C 188.898 28.792,188.369 28.890,187.163 28.957 L 185.500 29.048 185.500 26.783 L 185.500 24.518 186.292 24.467 C 187.635 24.381,188.726 24.525,189.284 24.862 M334.071 26.219 C 333.900 26.775,333.663 27.000,333.247 27.000 C 332.374 27.000,332.819 25.894,333.702 25.869 C 334.121 25.857,334.168 25.902,334.071 26.219 M110.498 26.219 C 110.451 26.269,110.114 26.349,109.748 26.399 C 109.383 26.448,108.783 26.568,108.417 26.666 C 108.050 26.763,107.600 26.878,107.417 26.920 C 106.405 27.154,106.253 27.481,106.203 29.536 L 106.156 31.453 106.745 31.269 C 107.069 31.168,107.333 31.028,107.333 30.959 C 107.333 30.890,107.431 30.833,107.550 30.833 C 107.669 30.833,107.860 30.740,107.973 30.627 C 108.937 29.663,113.667 29.658,113.667 30.621 C 113.667 30.738,113.733 30.833,113.814 30.833 C 113.896 30.833,113.995 31.055,114.035 31.327 C 114.121 31.919,113.966 32.000,112.746 32.000 C 112.255 32.000,111.814 32.064,111.766 32.142 C 111.717 32.219,111.086 32.329,110.362 32.385 C 109.052 32.486,108.729 32.573,107.365 33.202 C 106.486 33.607,105.372 34.702,105.224 35.305 C 105.164 35.550,105.046 35.796,104.961 35.851 C 104.753 35.988,104.744 39.340,104.951 39.476 C 105.042 39.535,105.168 39.799,105.233 40.062 C 105.297 40.325,105.452 40.642,105.577 40.767 C 105.701 40.892,105.829 41.052,105.860 41.122 C 106.115 41.698,108.651 42.667,109.904 42.667 C 111.126 42.667,113.274 41.651,113.688 40.876 C 114.008 40.280,114.167 40.433,114.167 41.338 L 114.167 42.176 116.542 42.130 L 118.917 42.083 118.961 36.687 C 118.985 33.718,118.939 31.206,118.858 31.103 C 118.778 31.001,118.663 30.595,118.603 30.201 C 118.495 29.492,118.265 28.962,117.888 28.549 C 117.780 28.431,117.546 28.149,117.367 27.921 C 116.547 26.880,114.930 26.289,112.667 26.206 C 111.521 26.164,110.545 26.170,110.498 26.219 M159.750 26.276 C 159.567 26.325,159.345 26.433,159.258 26.516 C 159.171 26.599,158.928 26.667,158.717 26.667 C 158.506 26.667,158.332 26.723,158.331 26.792 C 158.330 26.860,158.039 27.056,157.685 27.225 C 157.084 27.513,154.767 29.667,155.058 29.667 C 155.130 29.667,155.045 29.873,154.869 30.125 C 154.693 30.377,154.488 30.808,154.415 31.083 C 154.341 31.358,154.249 31.696,154.209 31.833 C 154.087 32.262,153.816 34.233,153.832 34.583 C 153.895 35.954,154.050 37.167,154.162 37.167 C 154.235 37.167,154.346 37.504,154.408 37.917 C 154.470 38.329,154.582 38.667,154.657 38.667 C 154.733 38.667,154.839 38.798,154.892 38.958 C 155.333 40.272,157.502 41.907,159.250 42.244 C 160.814 42.545,163.500 42.714,163.500 42.511 C 163.500 42.447,163.744 42.402,164.042 42.411 C 164.673 42.430,166.410 41.948,166.760 41.659 C 166.892 41.549,167.000 41.509,167.000 41.569 C 167.000 41.629,167.148 41.599,167.330 41.502 C 167.627 41.343,167.658 41.156,167.646 39.579 C 167.631 37.561,167.595 37.513,166.469 37.997 C 163.083 39.454,159.292 38.556,159.097 36.250 C 159.088 36.144,160.874 36.053,164.000 36.000 L 168.917 35.917 168.932 34.387 C 168.953 32.359,168.451 29.972,167.875 29.363 C 167.760 29.242,167.667 29.078,167.667 28.999 C 167.667 28.920,167.292 28.471,166.833 28.000 C 166.375 27.529,166.000 27.192,166.000 27.251 C 166.000 27.310,165.802 27.202,165.561 27.012 C 165.319 26.822,164.997 26.667,164.844 26.667 C 164.692 26.667,164.476 26.576,164.366 26.466 C 164.157 26.257,160.394 26.103,159.750 26.276 M201.542 26.463 L 199.167 26.509 199.167 32.335 C 199.167 38.445,199.157 38.347,199.938 40.115 C 200.686 41.808,204.363 43.374,205.458 42.466 C 205.601 42.347,205.745 42.275,205.778 42.306 C 205.903 42.422,207.167 42.131,207.167 41.985 C 207.167 41.902,207.275 41.833,207.408 41.833 C 207.541 41.833,207.710 41.732,207.783 41.608 C 207.857 41.484,208.085 41.293,208.292 41.185 C 208.498 41.077,208.667 40.878,208.667 40.744 C 208.667 40.610,208.742 40.500,208.833 40.500 C 208.925 40.500,209.000 40.829,209.000 41.232 C 209.000 42.169,208.994 42.167,211.930 42.167 L 214.333 42.167 214.333 34.434 C 214.333 27.538,214.305 26.691,214.070 26.601 C 213.559 26.405,209.411 26.489,209.200 26.700 C 209.054 26.846,209.000 28.205,209.000 31.773 C 209.000 34.895,208.939 36.685,208.831 36.752 C 208.737 36.809,208.696 36.913,208.739 36.983 C 208.981 37.374,207.638 38.340,206.691 38.457 C 204.526 38.724,204.172 37.731,204.169 31.385 C 204.168 28.709,204.110 26.496,204.042 26.468 C 203.973 26.440,202.848 26.437,201.542 26.463 M253.737 26.486 C 253.578 26.643,253.697 27.290,254.000 27.917 C 254.177 28.283,254.325 28.710,254.328 28.865 C 254.331 29.020,254.408 29.193,254.500 29.250 C 254.592 29.307,254.667 29.499,254.667 29.677 C 254.667 29.854,254.742 30.000,254.833 30.000 C 254.925 30.000,255.000 30.136,255.000 30.301 C 255.000 30.467,255.110 30.749,255.245 30.926 C 255.379 31.104,255.492 31.351,255.495 31.475 C 255.498 31.598,255.604 31.936,255.732 32.225 C 255.934 32.681,256.156 33.229,256.250 33.500 C 256.344 33.771,256.566 34.319,256.768 34.775 C 256.896 35.064,257.000 35.420,257.000 35.567 C 257.000 35.713,257.075 35.833,257.167 35.833 C 257.258 35.833,257.333 35.937,257.333 36.064 C 257.333 36.191,257.445 36.510,257.582 36.773 C 257.719 37.035,257.832 37.381,257.832 37.542 C 257.833 37.702,257.893 37.833,257.967 37.833 C 258.040 37.833,258.200 38.115,258.323 38.458 C 258.445 38.802,258.623 39.271,258.717 39.500 C 258.920 39.994,258.909 39.961,259.073 40.542 C 259.145 40.794,259.264 41.000,259.338 41.000 C 259.620 41.000,259.687 41.991,259.441 42.534 C 259.305 42.836,259.145 43.251,259.086 43.455 C 258.940 43.964,257.799 45.141,257.542 45.048 C 257.427 45.006,257.333 45.053,257.333 45.153 C 257.333 45.356,255.960 45.404,255.764 45.208 C 255.695 45.140,255.589 45.077,255.528 45.069 C 255.467 45.061,255.285 44.997,255.125 44.926 C 254.437 44.623,254.333 44.884,254.333 46.917 C 254.333 49.239,254.129 49.083,257.167 49.083 C 259.468 49.083,260.500 48.843,260.883 48.217 C 260.957 48.098,261.087 48.000,261.173 48.000 C 261.598 48.000,263.316 45.861,263.583 45.000 C 263.654 44.771,263.760 44.546,263.820 44.500 C 263.879 44.454,264.137 43.892,264.394 43.250 C 264.650 42.608,264.966 41.837,265.097 41.536 C 265.227 41.235,265.333 40.879,265.333 40.744 C 265.333 40.610,265.408 40.500,265.500 40.500 C 265.592 40.500,265.654 40.444,265.639 40.375 C 265.577 40.099,265.880 39.000,266.019 39.000 C 266.100 39.000,266.167 38.854,266.167 38.677 C 266.167 38.499,266.242 38.307,266.333 38.250 C 266.425 38.193,266.500 38.020,266.501 37.865 C 266.502 37.710,266.611 37.374,266.745 37.118 C 266.878 36.862,267.036 36.393,267.096 36.076 C 267.155 35.759,267.252 35.500,267.311 35.500 C 267.370 35.500,267.507 35.219,267.614 34.875 C 267.722 34.531,267.902 34.025,268.016 33.750 C 268.129 33.475,268.237 33.212,268.254 33.167 C 268.272 33.121,268.344 32.840,268.414 32.542 C 268.484 32.244,268.599 32.000,268.669 32.000 C 268.739 32.000,268.849 31.719,268.913 31.376 C 268.978 31.033,269.079 30.677,269.139 30.585 C 269.505 30.017,270.533 26.826,270.433 26.565 C 270.346 26.339,270.008 26.313,267.965 26.376 C 265.323 26.458,265.539 26.343,265.065 27.917 C 264.899 28.467,264.704 28.999,264.632 29.100 C 264.560 29.201,264.452 29.634,264.394 30.063 C 264.335 30.492,264.222 30.882,264.143 30.931 C 264.065 30.980,264.000 31.203,264.000 31.427 C 264.000 31.650,263.925 31.833,263.833 31.833 C 263.742 31.833,263.679 31.890,263.694 31.958 C 263.739 32.166,263.145 34.419,262.825 35.250 C 262.491 36.118,262.450 36.264,262.481 36.458 C 262.499 36.573,262.436 36.667,262.341 36.667 C 262.245 36.667,262.167 36.442,262.167 36.167 C 262.167 35.892,262.092 35.667,262.000 35.667 C 261.908 35.667,261.833 35.520,261.833 35.341 C 261.833 35.162,261.763 34.843,261.677 34.633 C 261.591 34.422,261.362 33.688,261.168 33.000 C 260.974 32.313,260.754 31.635,260.679 31.494 C 260.603 31.353,260.488 30.922,260.423 30.536 C 260.358 30.151,260.236 29.793,260.152 29.741 C 260.068 29.689,260.000 29.426,260.000 29.157 C 260.000 28.887,259.935 28.667,259.855 28.667 C 259.775 28.667,259.660 28.292,259.599 27.833 C 259.538 27.375,259.425 27.000,259.347 27.000 C 259.269 27.000,259.164 26.842,259.114 26.648 C 259.028 26.322,254.056 26.172,253.737 26.486 M163.233 30.375 C 163.535 30.673,163.827 31.142,163.880 31.417 C 163.933 31.692,164.027 32.048,164.089 32.208 C 164.194 32.478,164.010 32.500,161.601 32.500 C 159.400 32.500,159.000 32.462,159.000 32.250 C 159.000 32.112,159.075 32.000,159.167 32.000 C 159.258 32.000,159.333 31.841,159.333 31.647 C 159.333 30.148,162.090 29.249,163.233 30.375 M226.303 30.453 C 228.753 31.616,228.713 36.949,226.244 38.263 C 224.185 39.358,221.690 36.891,222.099 34.165 C 222.591 30.896,224.215 29.462,226.303 30.453 M245.318 30.468 C 245.372 30.553,245.585 30.674,245.791 30.739 C 245.997 30.803,246.212 31.038,246.268 31.261 C 246.324 31.484,246.428 31.667,246.499 31.667 C 247.091 31.667,247.008 35.912,246.392 37.083 C 245.462 38.854,241.901 38.820,241.485 37.035 C 241.407 36.699,241.293 36.387,241.155 36.127 C 240.797 35.458,241.174 32.050,241.647 31.667 C 241.704 31.621,241.830 31.438,241.928 31.261 C 242.026 31.084,242.251 30.859,242.428 30.761 C 242.605 30.663,242.787 30.538,242.833 30.483 C 243.113 30.148,245.104 30.136,245.318 30.468 M96.186 33.373 C 97.302 33.851,98.407 36.500,97.490 36.500 C 97.393 36.500,97.351 36.561,97.397 36.635 C 97.830 37.335,95.846 38.167,93.744 38.167 L 92.000 38.167 92.000 35.579 L 92.000 32.991 93.792 33.053 C 94.911 33.091,95.810 33.212,96.186 33.373 M189.864 33.477 C 191.092 34.076,191.488 35.326,190.883 36.698 C 190.430 37.725,189.315 38.167,187.177 38.167 L 185.500 38.167 185.500 35.574 L 185.500 32.982 187.322 33.054 C 188.730 33.110,189.309 33.206,189.864 33.477 M296.616 35.131 C 295.945 35.872,296.562 36.833,297.708 36.833 C 298.568 36.833,298.826 36.477,298.674 35.500 C 298.562 34.777,297.163 34.526,296.616 35.131 M309.109 35.138 C 308.434 35.884,309.074 36.818,310.265 36.828 C 311.019 36.834,311.333 36.446,311.333 35.510 C 311.333 34.773,309.689 34.498,309.109 35.138 M342.500 36.250 C 342.500 37.083,342.431 37.667,342.333 37.667 C 342.242 37.667,342.167 37.592,342.167 37.500 C 342.167 36.953,339.998 37.335,339.333 38.000 C 338.967 38.367,338.719 38.667,338.783 38.667 C 338.847 38.667,338.810 38.757,338.700 38.867 C 338.002 39.565,338.630 42.637,339.583 43.187 C 340.191 43.538,342.093 43.613,342.223 43.292 C 342.290 43.127,342.340 43.129,342.461 43.301 C 342.565 43.449,342.929 43.502,343.599 43.467 L 344.583 43.417 344.628 39.125 L 344.672 34.833 343.586 34.833 L 342.500 34.833 342.500 36.250 M370.500 39.175 L 370.500 43.516 371.542 43.466 L 372.583 43.417 372.634 42.542 C 372.661 42.060,372.760 41.667,372.852 41.667 C 372.944 41.667,372.973 41.742,372.917 41.833 C 372.860 41.925,372.880 42.000,372.962 42.000 C 373.044 42.000,373.214 42.206,373.342 42.458 C 373.790 43.346,374.071 43.500,375.243 43.500 C 375.893 43.500,376.333 43.429,376.333 43.325 C 376.333 43.017,375.831 42.167,375.648 42.167 C 375.552 42.167,375.502 42.078,375.538 41.969 C 375.574 41.860,375.487 41.644,375.344 41.489 C 374.577 40.657,374.277 40.000,374.663 40.000 C 374.753 40.000,374.873 39.818,374.929 39.595 C 374.984 39.373,375.136 39.150,375.265 39.101 C 375.394 39.051,375.500 38.909,375.500 38.784 C 375.500 38.660,375.688 38.382,375.917 38.167 C 376.655 37.473,376.483 37.314,375.055 37.368 C 373.710 37.419,373.446 37.596,373.062 38.708 C 372.805 39.453,372.667 38.827,372.667 36.917 L 372.667 34.833 371.583 34.833 L 370.500 34.833 370.500 39.175 M376.778 34.944 C 376.572 35.150,376.665 36.355,376.905 36.595 C 377.820 37.510,379.439 36.298,378.827 35.156 C 378.654 34.832,377.055 34.667,376.778 34.944 M114.119 35.875 C 113.926 37.675,113.023 38.667,111.578 38.667 C 110.052 38.667,109.633 38.317,109.633 37.045 C 109.633 35.809,110.498 35.408,113.982 35.025 C 114.164 35.005,114.193 35.187,114.119 35.875 M276.755 35.537 C 275.771 36.033,275.665 36.249,275.691 37.701 C 275.716 39.114,275.878 39.389,276.958 39.850 C 277.256 39.977,277.500 40.138,277.500 40.207 C 277.500 40.277,277.645 40.333,277.821 40.333 C 277.998 40.333,278.255 40.446,278.393 40.583 C 278.530 40.721,278.723 40.833,278.821 40.833 C 279.061 40.833,279.048 41.218,278.800 41.467 C 278.496 41.771,276.560 41.730,276.440 41.417 C 276.158 40.683,275.667 41.159,275.667 42.167 C 275.667 43.056,275.704 43.167,276.000 43.167 C 276.183 43.167,276.333 43.242,276.333 43.333 C 276.333 43.527,279.609 43.568,279.694 43.375 C 279.725 43.306,279.963 43.137,280.222 43.000 C 282.052 42.032,281.537 39.684,279.250 38.571 C 276.967 37.460,277.596 36.666,280.292 37.256 L 280.833 37.375 280.833 36.498 C 280.833 35.311,280.623 35.174,278.833 35.190 C 277.766 35.200,277.253 35.285,276.755 35.537 M348.103 35.427 C 347.659 36.583,348.126 37.167,349.496 37.167 L 350.346 37.167 350.326 40.292 L 350.305 43.417 351.444 43.417 L 352.583 43.417 352.629 40.292 L 352.674 37.167 353.567 37.167 C 354.650 37.167,354.824 36.985,354.687 36.000 L 354.583 35.250 351.394 35.205 C 348.595 35.165,348.192 35.192,348.103 35.427 M283.314 35.849 C 283.187 35.929,282.877 35.996,282.625 35.997 C 282.202 36.000,282.167 36.051,282.167 36.667 C 282.167 37.299,282.140 37.333,281.658 37.333 C 280.906 37.333,280.954 38.883,281.708 38.969 L 282.167 39.022 282.167 40.774 C 282.167 42.488,282.177 42.536,282.654 43.013 C 283.526 43.885,285.659 43.628,285.672 42.648 C 285.678 42.219,285.672 42.215,286.328 43.151 C 286.649 43.608,288.382 43.658,288.862 43.224 C 289.146 42.967,289.167 42.968,289.167 43.232 C 289.167 43.474,289.319 43.509,290.208 43.466 L 291.250 43.417 291.300 41.667 C 291.366 39.332,290.663 37.174,289.974 37.599 C 289.897 37.647,289.833 37.607,289.833 37.510 C 289.833 37.307,287.296 37.259,287.097 37.458 C 286.972 37.584,286.885 37.607,286.408 37.646 C 285.993 37.679,286.139 39.392,286.563 39.473 C 286.736 39.506,286.938 39.434,287.013 39.313 C 287.194 39.019,289.023 39.001,289.123 39.292 C 289.175 39.442,288.935 39.500,288.264 39.500 C 287.752 39.500,287.333 39.559,287.333 39.631 C 287.333 39.703,287.175 39.774,286.981 39.789 C 286.564 39.820,286.000 40.292,286.000 40.609 C 286.000 40.732,285.925 40.833,285.833 40.833 C 285.742 40.833,285.667 41.012,285.667 41.231 C 285.667 41.613,284.844 41.946,284.458 41.720 C 284.057 41.485,284.334 39.000,284.762 39.000 C 285.871 39.000,286.057 37.456,284.958 37.365 C 284.338 37.314,284.333 37.308,284.333 36.573 C 284.333 36.166,284.277 35.828,284.208 35.821 C 284.140 35.814,283.962 35.784,283.814 35.755 C 283.666 35.726,283.441 35.768,283.314 35.849 M293.725 35.838 C 293.647 35.913,293.358 35.999,293.083 36.029 C 292.639 36.077,292.578 36.152,292.532 36.698 C 292.488 37.226,292.418 37.320,292.032 37.365 C 291.348 37.444,291.343 38.889,292.027 38.968 L 292.470 39.019 292.527 40.762 C 292.605 43.173,293.938 44.258,295.678 43.327 C 296.251 43.021,296.140 41.601,295.552 41.713 C 294.750 41.867,294.667 41.735,294.667 40.316 L 294.667 39.000 295.133 39.000 C 295.765 39.000,296.000 38.720,296.000 37.967 C 296.000 37.339,295.994 37.333,295.333 37.333 L 294.667 37.333 294.667 36.583 C 294.667 36.171,294.610 35.828,294.542 35.821 C 294.473 35.814,294.293 35.784,294.141 35.754 C 293.990 35.725,293.802 35.762,293.725 35.838 M306.333 35.831 C 306.196 35.921,305.877 35.996,305.625 35.997 C 305.202 36.000,305.167 36.051,305.167 36.667 C 305.167 37.295,305.138 37.333,304.670 37.333 C 304.143 37.333,303.926 37.725,304.071 38.417 C 304.110 38.600,304.147 38.806,304.154 38.875 C 304.161 38.944,304.392 39.000,304.667 39.000 L 305.167 39.000 305.167 40.763 C 305.167 43.035,305.500 43.500,307.128 43.500 C 308.308 43.500,308.667 43.210,308.667 42.257 C 308.667 41.632,308.659 41.624,308.111 41.713 C 307.302 41.845,307.219 41.719,307.180 40.292 L 307.145 39.000 307.652 39.000 C 308.282 39.000,308.755 38.376,308.599 37.751 C 308.509 37.394,308.399 37.333,307.839 37.333 L 307.185 37.333 307.134 36.543 C 307.081 35.721,306.835 35.502,306.333 35.831 M296.667 40.417 L 296.667 43.500 297.550 43.500 C 298.827 43.500,298.833 43.484,298.833 40.480 C 298.833 37.214,298.878 37.333,297.649 37.333 L 296.667 37.333 296.667 40.417 M300.333 37.632 C 299.540 38.168,299.417 38.376,299.417 39.171 C 299.417 40.417,299.956 41.095,300.875 41.007 C 301.035 40.992,301.167 41.059,301.167 41.156 C 301.167 41.254,301.270 41.333,301.396 41.333 C 301.523 41.333,301.727 41.455,301.850 41.604 C 302.055 41.851,301.951 41.869,300.662 41.812 L 299.250 41.750 299.195 42.235 C 299.074 43.298,299.380 43.500,301.111 43.500 C 302.037 43.500,302.667 43.433,302.667 43.333 C 302.667 43.242,302.803 43.167,302.969 43.167 C 303.539 43.167,304.048 42.224,303.962 41.328 C 303.893 40.617,303.561 40.000,303.245 40.000 C 303.184 40.000,302.897 39.896,302.609 39.768 C 302.320 39.640,301.952 39.493,301.792 39.440 C 301.013 39.184,301.539 38.956,302.667 39.061 L 303.833 39.169 303.828 38.543 C 303.819 37.499,303.573 37.332,302.065 37.342 C 301.117 37.348,300.634 37.429,300.333 37.632 M309.167 40.417 L 309.167 43.500 310.250 43.500 L 311.333 43.500 311.333 40.680 C 311.333 37.192,311.383 37.333,310.149 37.333 L 309.167 37.333 309.167 40.417 M313.463 37.726 C 311.835 38.664,311.464 40.936,312.667 42.595 C 313.120 43.221,313.954 43.500,315.371 43.500 C 316.923 43.500,317.167 43.340,317.167 42.322 L 317.167 41.621 316.110 41.729 C 314.777 41.865,314.167 41.441,314.167 40.378 C 314.167 39.418,314.641 39.083,316.000 39.083 C 317.195 39.083,317.493 38.672,316.986 37.723 C 316.691 37.172,314.421 37.174,313.463 37.726 M318.750 37.500 C 318.693 37.592,318.534 37.667,318.395 37.667 C 317.125 37.667,317.185 40.966,318.457 41.096 C 320.224 41.277,320.370 41.895,318.625 41.809 L 317.417 41.750 317.417 42.583 L 317.417 43.417 319.042 43.464 C 320.082 43.495,320.667 43.450,320.667 43.339 C 320.667 43.244,320.779 43.167,320.915 43.167 C 322.362 43.167,322.478 40.190,321.042 39.920 C 320.744 39.864,320.500 39.756,320.500 39.680 C 320.500 39.604,320.275 39.497,320.000 39.442 C 318.992 39.240,319.444 38.948,320.583 39.065 L 321.667 39.176 321.667 38.255 L 321.667 37.333 320.260 37.333 C 319.486 37.333,318.807 37.408,318.750 37.500 M326.750 37.500 C 326.693 37.592,326.501 37.667,326.323 37.667 C 326.042 37.667,326.000 37.787,326.000 38.583 C 326.000 39.447,326.338 39.901,326.537 39.305 C 326.648 38.972,328.667 38.901,328.667 39.230 C 328.667 39.438,328.498 39.500,327.927 39.500 C 327.519 39.500,327.140 39.575,327.083 39.667 C 327.027 39.758,326.816 39.835,326.615 39.836 C 325.969 39.841,325.456 40.569,325.474 41.456 C 325.507 43.123,325.850 43.500,327.333 43.500 C 327.755 43.500,328.199 43.406,328.321 43.292 C 328.497 43.125,328.557 43.125,328.618 43.292 C 328.738 43.620,330.604 43.571,330.732 43.236 C 331.202 42.012,330.749 38.557,330.024 37.832 C 329.504 37.311,327.022 37.060,326.750 37.500 M331.871 40.375 L 331.917 43.417 332.917 43.417 L 333.917 43.417 334.018 41.333 C 334.074 40.188,334.131 39.239,334.143 39.226 C 334.299 39.069,335.091 39.024,335.232 39.165 C 335.337 39.269,335.453 40.233,335.500 41.383 L 335.583 43.417 336.625 43.466 L 337.667 43.516 337.667 41.076 C 337.667 37.832,337.402 37.343,335.645 37.337 C 334.844 37.334,334.482 37.405,334.325 37.594 C 334.129 37.830,334.095 37.830,333.963 37.594 C 333.856 37.403,333.551 37.333,332.821 37.333 L 331.826 37.333 331.871 40.375 M354.500 40.425 L 354.500 43.516 355.542 43.466 L 356.583 43.417 356.628 41.833 C 356.652 40.962,356.713 40.137,356.764 40.000 C 356.814 39.862,356.845 39.721,356.833 39.685 C 356.754 39.452,357.873 39.129,358.008 39.346 C 358.281 39.787,358.521 39.249,358.468 38.315 L 358.417 37.417 357.780 37.364 C 357.430 37.335,357.043 37.395,356.920 37.497 C 356.766 37.625,356.663 37.629,356.588 37.508 C 356.529 37.412,356.035 37.333,355.490 37.333 L 354.500 37.333 354.500 40.425 M359.833 37.500 C 359.833 37.592,359.777 37.658,359.708 37.647 C 359.095 37.550,359.000 37.676,359.000 38.583 C 359.000 39.601,359.105 39.672,359.970 39.240 C 360.566 38.943,361.856 38.976,361.959 39.292 C 362.009 39.442,361.767 39.500,361.097 39.500 C 360.585 39.500,360.167 39.559,360.167 39.631 C 360.167 39.703,359.998 39.775,359.792 39.790 C 358.753 39.865,358.113 41.699,358.785 42.671 C 359.313 43.435,359.451 43.500,360.558 43.500 C 361.266 43.500,361.668 43.428,361.723 43.292 C 361.790 43.127,361.840 43.129,361.961 43.301 C 362.065 43.449,362.429 43.502,363.099 43.467 L 364.083 43.417 364.104 41.208 C 364.116 39.994,364.059 39.000,363.979 39.000 C 363.899 39.000,363.833 38.840,363.833 38.644 C 363.833 38.269,363.033 37.460,362.802 37.603 C 362.728 37.649,362.667 37.607,362.667 37.510 C 362.667 37.399,362.136 37.333,361.250 37.333 C 360.417 37.333,359.833 37.402,359.833 37.500 M366.806 37.458 C 366.775 37.527,366.469 37.726,366.125 37.901 C 365.781 38.076,365.500 38.303,365.500 38.406 C 365.500 38.509,365.350 38.701,365.167 38.833 C 364.537 39.288,364.728 41.669,365.458 42.464 C 365.573 42.588,365.667 42.759,365.667 42.842 C 365.667 42.925,365.854 43.041,366.083 43.098 C 366.313 43.156,366.500 43.270,366.500 43.351 C 366.500 43.433,367.185 43.500,368.023 43.500 C 369.766 43.500,369.986 43.363,369.995 42.269 L 370.000 41.621 368.958 41.722 C 367.629 41.851,367.000 41.420,367.000 40.378 C 367.000 39.390,367.472 39.074,368.875 39.122 L 370.000 39.161 370.000 38.485 C 370.000 37.493,369.749 37.333,368.192 37.333 C 367.460 37.333,366.836 37.390,366.806 37.458 M376.705 40.375 L 376.750 43.417 377.792 43.466 L 378.833 43.516 378.833 40.425 L 378.833 37.333 377.746 37.333 L 376.659 37.333 376.705 40.375 M379.907 37.548 C 379.862 37.666,379.846 39.034,379.871 40.589 L 379.917 43.417 380.917 43.417 L 381.917 43.417 382.018 41.333 C 382.074 40.188,382.131 39.239,382.143 39.226 C 382.356 39.011,383.097 39.036,383.353 39.268 C 383.626 39.515,383.667 39.804,383.667 41.526 L 383.667 43.500 384.658 43.500 L 385.650 43.500 385.700 41.086 C 385.733 39.488,385.687 38.585,385.563 38.416 C 384.738 37.291,384.810 37.333,383.695 37.333 C 382.801 37.333,382.588 37.392,382.324 37.708 L 382.011 38.083 382.006 37.708 C 381.999 37.266,380.072 37.119,379.907 37.548 M387.746 37.631 C 386.641 38.567,385.915 41.452,386.667 41.917 C 386.758 41.973,386.833 42.127,386.833 42.258 C 386.833 42.571,387.349 43.167,387.620 43.167 C 387.738 43.167,387.833 43.242,387.833 43.333 C 387.833 43.427,388.302 43.500,388.907 43.500 C 389.497 43.500,390.027 43.425,390.083 43.333 C 390.281 43.013,390.523 43.164,390.406 43.534 C 390.137 44.382,388.348 44.801,387.610 44.188 C 387.201 43.850,387.000 44.115,387.000 44.992 C 387.000 45.981,387.041 46.000,389.108 46.000 C 390.733 46.000,391.125 45.890,391.758 45.258 C 392.460 44.556,392.500 44.311,392.500 40.761 L 392.500 37.333 391.500 37.333 C 390.833 37.333,390.500 37.400,390.500 37.533 C 390.500 37.689,390.456 37.689,390.300 37.533 C 389.985 37.219,388.149 37.289,387.746 37.631 M342.213 39.335 C 342.553 39.733,342.591 40.950,342.276 41.364 C 341.628 42.216,340.665 41.766,340.669 40.613 C 340.673 39.333,340.798 39.149,341.755 39.023 C 341.849 39.010,342.055 39.151,342.213 39.335 M390.238 39.262 C 390.915 39.938,390.379 41.833,389.512 41.833 C 388.809 41.833,388.244 39.948,388.836 39.582 C 388.929 39.524,388.966 39.413,388.917 39.334 C 388.829 39.192,389.166 39.056,389.696 39.019 C 389.850 39.009,390.094 39.118,390.238 39.262 M289.167 41.029 C 289.167 41.344,288.641 41.833,288.302 41.833 C 287.852 41.833,287.714 41.333,288.088 41.059 C 288.467 40.782,289.167 40.762,289.167 41.029 M328.739 41.208 C 328.588 41.690,328.349 41.847,327.846 41.793 C 326.989 41.701,327.450 40.833,328.356 40.833 C 328.798 40.833,328.842 40.877,328.739 41.208 M362.000 41.058 C 362.000 41.780,360.794 42.054,360.694 41.355 C 360.661 41.121,360.707 41.005,360.808 41.068 C 360.901 41.125,361.024 41.096,361.082 41.003 C 361.237 40.751,362.000 40.796,362.000 41.058 " stroke="none" fill="#8c8c8c" fill-rule="evenodd"></path><path id="path5" d="M30.083 5.333 C 29.892 5.416,33.685 5.480,39.000 5.486 C 45.029 5.492,48.163 5.439,48.000 5.333 C 47.686 5.131,30.555 5.131,30.083 5.333 M74.667 7.582 L 74.667 8.164 65.208 8.208 L 55.750 8.253 65.292 8.293 L 74.833 8.333 74.833 7.667 C 74.833 7.300,74.796 7.000,74.750 7.000 C 74.704 7.000,74.667 7.262,74.667 7.582 M80.872 11.375 L 80.833 15.833 77.842 15.833 L 74.852 15.833 74.784 15.042 L 74.716 14.250 74.733 15.083 L 74.750 15.917 77.795 15.962 C 80.160 15.997,80.859 15.960,80.923 15.793 C 80.969 15.675,80.984 13.629,80.958 11.247 L 80.911 6.917 80.872 11.375 M55.500 9.292 C 55.500 9.371,55.609 9.582,55.742 9.760 C 55.975 10.072,55.980 10.070,55.888 9.706 C 55.793 9.330,55.500 9.017,55.500 9.292 M24.574 15.250 C 24.574 17.908,24.597 18.972,24.625 17.615 C 24.653 16.257,24.653 14.082,24.625 12.781 C 24.596 11.481,24.573 12.592,24.574 15.250 M56.596 11.833 C 56.657 12.063,56.776 12.362,56.861 12.500 C 56.969 12.674,56.982 12.623,56.904 12.333 C 56.843 12.104,56.724 11.804,56.639 11.667 C 56.531 11.493,56.518 11.544,56.596 11.833 M32.862 20.458 C 37.232 20.483,44.432 20.483,48.862 20.458 C 53.292 20.434,49.717 20.413,40.917 20.413 C 32.117 20.413,28.492 20.434,32.862 20.458 M27.208 23.125 C 35.527 23.149,49.140 23.149,57.458 23.125 C 65.777 23.101,58.971 23.082,42.333 23.082 C 25.696 23.082,18.890 23.101,27.208 23.125 M6.402 28.088 C 6.155 28.411,5.991 28.713,6.036 28.758 C 6.081 28.803,6.317 28.539,6.561 28.170 C 7.109 27.343,7.009 27.292,6.402 28.088 M78.652 28.805 C 78.742 28.973,78.946 29.217,79.106 29.347 C 79.286 29.493,79.246 29.377,79.001 29.042 C 78.563 28.444,78.399 28.333,78.652 28.805 M80.865 33.083 C 80.846 33.725,80.797 34.775,80.756 35.417 L 80.681 36.583 80.846 35.417 C 80.936 34.775,80.985 33.725,80.955 33.083 L 80.900 31.917 80.865 33.083 M4.003 35.931 C 4.004 36.473,4.071 37.021,4.152 37.149 C 4.240 37.288,4.264 36.923,4.211 36.232 C 4.100 34.787,3.999 34.641,4.003 35.931 M10.013 35.292 C 10.021 35.466,10.060 35.499,10.110 35.375 C 10.175 35.214,11.450 35.167,15.690 35.167 C 19.644 35.167,21.155 35.218,21.073 35.350 C 20.993 35.479,21.052 35.485,21.272 35.372 C 21.443 35.284,21.696 35.170,21.833 35.119 C 21.971 35.068,19.365 35.020,16.042 35.013 C 10.389 35.001,10.001 35.019,10.013 35.292 M24.533 35.089 C 24.582 35.138,26.667 35.178,29.167 35.178 C 31.666 35.178,33.751 35.138,33.800 35.089 C 33.849 35.040,31.764 35.000,29.167 35.000 C 26.569 35.000,24.484 35.040,24.533 35.089 M41.883 35.125 C 46.006 35.158,47.651 35.223,47.572 35.352 C 47.494 35.478,47.554 35.485,47.772 35.372 C 47.943 35.284,48.196 35.170,48.333 35.119 C 48.471 35.068,45.771 35.038,42.333 35.053 L 36.083 35.079 41.883 35.125 M51.167 35.119 C 51.304 35.171,51.642 35.318,51.917 35.448 C 52.379 35.665,52.392 35.663,52.087 35.420 C 51.784 35.179,52.107 35.158,55.979 35.172 C 58.301 35.181,60.244 35.145,60.295 35.094 C 60.347 35.042,58.258 35.006,55.653 35.013 C 53.048 35.020,51.029 35.068,51.167 35.119 M62.869 35.091 C 62.919 35.142,65.603 35.177,68.834 35.171 C 74.651 35.159,74.707 35.163,74.619 35.497 C 74.571 35.682,74.599 35.792,74.682 35.740 C 74.765 35.689,74.833 35.501,74.833 35.323 C 74.833 35.009,74.661 35.000,68.806 35.000 C 65.490 35.000,62.819 35.041,62.869 35.091 M31.752 36.165 C 31.489 36.439,31.306 36.690,31.345 36.722 C 31.385 36.755,31.630 36.531,31.891 36.224 C 32.481 35.532,32.394 35.495,31.752 36.165 M57.045 39.000 C 57.045 39.412,57.078 39.581,57.118 39.375 C 57.157 39.169,57.157 38.831,57.118 38.625 C 57.078 38.419,57.045 38.587,57.045 39.000 M39.552 39.417 C 39.553 39.967,39.584 40.172,39.621 39.872 C 39.658 39.572,39.657 39.122,39.619 38.872 C 39.581 38.622,39.551 38.867,39.552 39.417 M30.667 40.931 C 30.668 41.118,31.297 42.167,31.409 42.167 C 31.453 42.167,31.328 41.885,31.131 41.542 C 30.690 40.772,30.667 40.741,30.667 40.931 M19.167 41.454 C 19.167 41.551,19.321 41.807,19.510 42.023 L 19.853 42.417 19.560 41.917 C 19.175 41.259,19.167 41.249,19.167 41.454 M26.083 42.783 C 25.625 43.206,25.400 43.472,25.583 43.373 C 25.901 43.203,27.147 41.993,26.991 42.007 C 26.950 42.010,26.542 42.359,26.083 42.783 M38.073 42.708 L 37.583 43.250 38.125 42.760 C 38.630 42.304,38.743 42.167,38.615 42.167 C 38.586 42.167,38.342 42.410,38.073 42.708 M77.209 42.708 C 76.973 43.006,76.642 43.667,76.728 43.667 C 76.768 43.667,76.955 43.404,77.145 43.083 C 77.489 42.500,77.520 42.315,77.209 42.708 M22.877 43.953 C 23.131 43.991,23.506 43.990,23.711 43.951 C 23.916 43.911,23.708 43.880,23.250 43.881 C 22.792 43.882,22.624 43.915,22.877 43.953 M34.542 43.953 C 34.794 43.991,35.206 43.991,35.458 43.953 C 35.710 43.915,35.504 43.883,35.000 43.883 C 34.496 43.883,34.290 43.915,34.542 43.953 M49.377 43.953 C 49.631 43.991,50.006 43.990,50.211 43.951 C 50.416 43.911,50.208 43.880,49.750 43.881 C 49.292 43.882,49.124 43.915,49.377 43.953 M61.128 43.954 C 61.428 43.991,61.878 43.990,62.128 43.952 C 62.378 43.914,62.133 43.884,61.583 43.885 C 61.033 43.886,60.828 43.917,61.128 43.954 M17.500 45.741 C 17.500 45.787,17.725 45.941,18.000 46.083 C 18.275 46.226,18.500 46.304,18.500 46.259 C 18.500 46.213,18.275 46.059,18.000 45.917 C 17.725 45.774,17.500 45.696,17.500 45.741 M30.971 46.625 C 37.326 46.649,47.676 46.649,53.971 46.625 C 60.266 46.601,55.067 46.581,42.417 46.581 C 29.767 46.581,24.616 46.601,30.971 46.625 M17.917 52.500 C 18.100 52.579,18.400 52.641,18.583 52.638 C 18.851 52.634,18.835 52.607,18.500 52.500 C 17.930 52.317,17.492 52.317,17.917 52.500 M66.417 52.500 L 66.083 52.643 66.417 52.643 C 66.600 52.643,66.900 52.579,67.083 52.500 L 67.417 52.357 67.083 52.357 C 66.900 52.357,66.600 52.421,66.417 52.500 M30.708 52.792 C 37.102 52.816,47.565 52.816,53.958 52.792 C 60.352 52.767,55.121 52.748,42.333 52.748 C 29.546 52.748,24.315 52.767,30.708 52.792 " stroke="none" fill="#ffffff" fill-rule="evenodd"></path><path id="path6" d="" stroke="none" fill="#0000ff" fill-rule="evenodd"></path><path id="path7" d="" stroke="none" fill="#0055ff" fill-rule="evenodd"></path><path id="path8" d="M80.740 11.417 C 80.740 13.892,80.763 14.927,80.791 13.718 C 80.820 12.509,80.820 10.484,80.791 9.218 C 80.763 7.952,80.740 8.942,80.740 11.417 M24.740 15.833 C 24.740 18.354,24.763 19.385,24.791 18.125 C 24.820 16.865,24.820 14.802,24.791 13.542 C 24.763 12.281,24.740 13.313,24.740 15.833 M80.727 33.500 C 80.727 34.371,80.755 34.727,80.789 34.292 C 80.824 33.856,80.824 33.144,80.789 32.708 C 80.755 32.273,80.727 32.629,80.727 33.500 " stroke="none" fill="#4d839b" fill-rule="evenodd"></path><path id="path9" d="M74.881 7.750 C 74.882 8.208,74.915 8.376,74.953 8.123 C 74.991 7.869,74.990 7.494,74.951 7.289 C 74.911 7.084,74.880 7.292,74.881 7.750 M74.900 15.040 L 74.917 15.750 77.792 15.756 L 80.667 15.762 77.843 15.711 L 75.019 15.659 74.951 14.995 L 74.884 14.331 74.900 15.040 M13.042 34.958 C 14.577 34.986,17.090 34.986,18.625 34.958 C 20.160 34.931,18.904 34.908,15.833 34.908 C 12.762 34.908,11.506 34.931,13.042 34.958 M21.532 34.921 C 21.663 35.052,22.818 35.071,22.945 34.944 C 23.006 34.883,22.693 34.833,22.250 34.833 C 21.807 34.833,21.484 34.873,21.532 34.921 M26.198 34.958 C 27.727 34.985,30.277 34.986,31.864 34.958 C 33.451 34.931,32.200 34.908,29.083 34.908 C 25.967 34.908,24.668 34.931,26.198 34.958 M35.572 34.983 C 35.873 35.101,36.667 35.039,36.667 34.897 C 36.667 34.862,36.348 34.839,35.958 34.845 C 35.457 34.853,35.344 34.894,35.572 34.983 M36.858 34.913 C 36.969 35.025,49.353 35.036,49.465 34.924 C 49.515 34.874,46.681 34.833,43.167 34.833 C 39.653 34.833,36.814 34.869,36.858 34.913 M50.458 34.951 C 50.665 34.991,51.002 34.991,51.208 34.951 C 51.415 34.911,51.246 34.879,50.833 34.879 C 50.421 34.879,50.252 34.911,50.458 34.951 M54.042 34.958 C 55.394 34.986,57.606 34.986,58.958 34.958 C 60.310 34.930,59.204 34.907,56.500 34.907 C 53.796 34.907,52.690 34.930,54.042 34.958 M61.869 34.924 C 61.980 35.036,74.364 35.025,74.476 34.913 C 74.520 34.869,71.681 34.833,68.167 34.833 C 64.653 34.833,61.819 34.874,61.869 34.924 M27.542 39.250 C 27.544 39.617,27.578 39.747,27.618 39.540 C 27.658 39.332,27.656 39.032,27.615 38.873 C 27.573 38.714,27.540 38.883,27.542 39.250 " stroke="none" fill="#2f9ed6" fill-rule="evenodd"></path><path id="path10" d="" stroke="none" fill="#69a5c3" fill-rule="evenodd"></path><path id="path11" d="M29.083 5.731 C 25.467 6.892,24.833 8.301,24.833 15.173 L 24.833 20.167 40.917 20.167 C 49.763 20.167,57.000 20.115,57.000 20.051 C 57.000 19.926,54.644 13.929,54.240 13.027 C 54.103 12.720,53.728 11.783,53.406 10.943 C 53.085 10.104,52.699 9.133,52.550 8.786 C 52.160 7.884,50.864 6.636,49.727 6.070 L 48.750 5.583 39.250 5.550 C 31.896 5.524,29.599 5.565,29.083 5.731 M75.000 7.707 L 75.000 8.497 65.262 8.540 L 55.524 8.583 56.278 10.417 C 56.693 11.425,57.194 12.717,57.391 13.288 L 57.750 14.325 66.375 14.329 L 75.000 14.333 75.000 15.000 L 75.000 15.667 77.833 15.667 L 80.667 15.667 80.667 11.292 L 80.667 6.917 77.833 6.917 L 75.000 6.917 75.000 7.707 M12.191 23.337 C 11.115 23.495,9.264 24.401,8.813 24.990 C 8.634 25.225,7.477 26.938,6.243 28.797 L 4.000 32.176 4.000 33.495 C 4.000 34.220,4.075 34.860,4.167 34.917 C 4.258 34.973,4.333 35.416,4.333 35.900 C 4.333 37.415,4.691 38.115,8.092 43.250 C 12.520 49.935,14.031 51.335,17.917 52.346 C 19.259 52.696,63.685 52.771,65.981 52.427 C 69.957 51.833,72.169 50.145,75.420 45.223 C 80.985 36.800,80.440 37.928,80.600 34.495 L 80.716 31.992 78.402 28.558 C 75.893 24.837,75.318 24.222,73.768 23.607 L 72.750 23.204 42.917 23.205 C 26.508 23.205,12.682 23.265,12.191 23.337 M22.500 35.031 C 19.399 35.866,17.989 38.847,19.436 41.507 C 21.082 44.530,25.678 44.380,27.147 41.255 C 28.199 39.016,26.843 35.704,24.679 35.231 C 23.242 34.917,23.928 34.860,29.083 34.863 C 33.953 34.866,34.654 34.897,34.069 35.081 C 28.186 36.939,30.648 45.212,36.564 43.464 C 40.392 42.333,40.169 36.387,36.253 35.180 L 35.250 34.871 42.417 34.862 L 49.583 34.852 48.537 35.218 C 43.734 36.896,44.778 43.646,49.842 43.663 C 54.889 43.680,55.789 36.784,50.953 35.157 C 50.089 34.866,50.123 34.864,55.750 34.858 C 61.305 34.851,61.400 34.856,60.548 35.134 C 55.612 36.741,56.434 43.667,61.560 43.667 C 66.648 43.667,67.630 36.695,62.757 35.178 L 61.750 34.865 68.000 34.851 C 74.575 34.837,75.073 34.871,74.955 35.321 C 74.791 35.946,68.506 45.122,67.952 45.545 C 67.630 45.791,66.965 46.162,66.475 46.371 L 65.583 46.750 42.417 46.750 L 19.250 46.750 18.313 46.311 C 16.583 45.499,16.442 45.323,10.883 37.014 C 9.320 34.676,8.883 34.837,16.750 34.857 C 21.042 34.869,22.895 34.925,22.500 35.031 " stroke="none" fill="#00aaff" fill-rule="evenodd"></path><path id="path12" d="M31.305 46.792 C 37.476 46.816,47.526 46.816,53.638 46.792 C 59.750 46.767,54.700 46.748,42.417 46.748 C 30.133 46.748,25.133 46.767,31.305 46.792 " stroke="none" fill="#4dc4ff" fill-rule="evenodd"></path><path id="path13" d="M76.458 6.957 C 77.215 6.988,78.452 6.988,79.208 6.957 C 79.965 6.926,79.346 6.901,77.833 6.901 C 76.321 6.901,75.702 6.926,76.458 6.957 M32.888 20.292 C 37.363 20.316,44.638 20.316,49.054 20.292 C 53.470 20.267,49.808 20.247,40.917 20.247 C 32.025 20.247,28.412 20.267,32.888 20.292 " stroke="none" fill="#98c6dc" fill-rule="evenodd"></path><path id="path14" d="M60.470 8.458 C 63.158 8.484,67.508 8.484,70.137 8.458 C 72.766 8.432,70.567 8.411,65.250 8.411 C 59.933 8.411,57.782 8.433,60.470 8.458 " stroke="none" fill="#aae4ff" fill-rule="evenodd"></path></g></svg>